<?xml version="1.0" standalone="no"?>
<!DOCTYPE svg PUBLIC "-//W3C//DTD SVG 20010904//EN"
 "http://www.w3.org/TR/2001/REC-SVG-20010904/DTD/svg10.dtd">
<svg version="1.0" xmlns="http://www.w3.org/2000/svg"
 width="1200.000000pt" height="1200.000000pt" viewBox="0 0 1200.000000 1200.000000"
 preserveAspectRatio="xMidYMid meet">

<g transform="translate(0.000000,1200.000000) scale(0.100000,-0.100000)"
fill="#000000" stroke="none">
<path d="M5770 10994 c-606 -35 -1110 -144 -1640 -357 -931 -372 -1728 -1023
-2295 -1872 -1101 -1648 -1112 -3824 -27 -5490 287 -441 655 -849 1060 -1173
778 -623 1701 -993 2702 -1084 174 -15 686 -15 860 0 1430 130 2712 841 3565
1977 558 744 882 1576 981 2520 25 234 25 743 0 970 -57 530 -170 979 -362
1441 -419 1008 -1174 1865 -2124 2411 -262 151 -635 318 -905 406 -370 121
-774 205 -1140 237 -129 11 -568 20 -675 14z m-1705 -1018 c81 -99 258 -424
404 -744 119 -259 514 -1266 603 -1537 22 -66 43 -124 47 -128 5 -5 121 7 257
27 375 53 461 60 679 60 216 0 351 -13 673 -66 166 -27 195 -29 207 -17 20 20
198 481 477 1234 131 354 459 946 601 1084 l45 44 20 -65 c112 -360 282 -1655
357 -2708 36 -519 40 -629 40 -1185 -1 -865 -39 -1296 -146 -1625 -54 -167
-127 -301 -346 -630 -286 -430 -404 -578 -700 -877 -133 -134 -144 -142 -204
-161 -146 -45 -385 -53 -537 -17 -77 18 -171 65 -221 110 -44 40 -95 132 -105
189 -14 74 1 112 69 184 34 37 67 77 74 89 27 53 2 117 -60 148 -45 24 -173
36 -262 26 -108 -12 -165 -42 -195 -103 -33 -66 -20 -103 56 -161 70 -52 95
-100 100 -189 6 -92 -10 -130 -82 -202 -205 -205 -546 -243 -842 -93 -75 38
-564 549 -838 877 -336 401 -493 650 -550 871 -48 188 -91 489 -120 859 -53
649 -70 1702 -36 2220 52 798 199 1692 371 2253 43 141 101 277 118 277 5 0
26 -20 46 -44z m2099 -7277 c58 -83 176 -157 293 -186 90 -21 271 -21 392 1
51 9 95 16 96 14 11 -11 -371 -316 -525 -420 -167 -113 -206 -128 -325 -128
-109 0 -170 13 -295 61 -110 42 -207 117 -470 361 -64 59 -78 76 -55 68 62
-24 139 -29 261 -20 282 23 473 107 561 245 15 25 30 45 33 45 3 0 18 -19 34
-41z"/>
<path d="M7916 9278 c-93 -94 -407 -683 -592 -1110 -89 -207 -145 -377 -151
-465 -5 -65 -3 -78 22 -129 57 -116 220 -246 436 -348 188 -88 385 -146 499
-146 43 0 56 5 80 28 87 88 89 437 4 1082 -49 381 -149 926 -189 1041 -18 49
-41 79 -63 79 -7 0 -28 -15 -46 -32z"/>
<path d="M4092 9282 c-68 -44 -277 -1117 -323 -1658 -13 -158 -8 -389 11 -448
14 -46 48 -83 86 -92 38 -10 202 20 314 56 52 17 158 62 235 100 280 136 445
299 445 440 0 141 -128 489 -361 983 -82 173 -230 458 -277 532 -54 85 -92
110 -130 87z"/>
<path d="M5955 7404 c-132 -29 -341 -147 -384 -217 -38 -63 -61 -178 -61 -312
0 -265 75 -490 239 -718 121 -169 205 -367 266 -630 21 -87 33 -121 47 -128
31 -17 57 -1 67 39 5 20 23 100 41 177 73 315 139 487 244 639 156 223 187
368 152 701 -8 72 -21 148 -30 169 -61 147 -255 271 -451 289 -38 4 -86 0
-130 -9z m193 -89 c134 -32 261 -122 301 -214 23 -55 41 -212 41 -367 0 -169
-37 -281 -140 -419 -29 -38 -70 -106 -92 -150 -44 -86 -125 -322 -154 -447
-10 -43 -19 -76 -22 -74 -2 3 -23 62 -47 134 -53 159 -123 299 -207 417 -82
114 -110 162 -148 255 -68 166 -99 366 -81 520 20 161 50 201 212 285 142 74
220 87 337 60z"/>
<path d="M5952 7065 c-58 -25 -101 -66 -128 -121 -24 -50 -26 -62 -21 -132 10
-146 190 -641 251 -691 8 -7 20 -10 27 -6 46 29 201 578 202 720 1 43 -5 71
-20 100 -28 52 -88 110 -135 130 -46 19 -132 19 -176 0z"/>
<path d="M7428 7116 c-89 -36 -182 -108 -324 -250 -182 -181 -276 -332 -379
-609 -91 -247 -190 -686 -145 -641 6 6 46 91 89 190 228 522 323 639 746 921
83 55 165 117 182 137 68 77 66 166 -7 238 -45 46 -78 49 -162 14z"/>
<path d="M4461 7064 c-66 -75 -65 -150 3 -231 15 -18 96 -78 179 -134 214
-144 290 -204 383 -301 137 -143 217 -279 371 -633 40 -93 78 -174 83 -179 44
-44 -48 369 -136 612 -105 289 -200 449 -368 620 -182 186 -339 292 -433 292
-37 0 -46 -5 -82 -46z"/>
<path d="M4100 6392 c-71 -39 -101 -142 -60 -209 30 -49 85 -80 260 -143 88
-32 197 -76 243 -98 170 -83 395 -249 555 -410 62 -62 102 -97 102 -86 0 27
-86 182 -155 278 -220 309 -514 583 -702 657 -81 31 -196 37 -243 11z"/>
<path d="M7709 6387 c-129 -44 -269 -147 -444 -328 -126 -131 -221 -246 -307
-373 -65 -98 -128 -216 -128 -242 0 -10 38 22 93 77 139 142 351 306 507 392
72 40 241 109 366 151 147 49 214 108 214 191 0 53 -37 116 -80 137 -49 25
-140 23 -221 -5z"/>
<path d="M3700 5636 c0 -8 114 -142 263 -311 121 -136 380 -397 425 -428 20
-14 262 -107 537 -205 275 -99 569 -205 654 -236 85 -31 155 -55 157 -54 9 9
-477 690 -559 784 -84 96 -324 231 -528 298 -122 40 -385 96 -587 126 -155 22
-362 37 -362 26z m375 -117 c372 -54 638 -131 830 -242 152 -87 189 -122 319
-297 159 -214 224 -304 264 -362 l33 -48 -123 44 c-929 333 -930 333 -985 377
-85 67 -513 521 -513 543 0 9 25 7 175 -15z"/>
<path d="M8095 5629 c-249 -26 -592 -92 -760 -146 -139 -45 -271 -106 -377
-175 -135 -88 -149 -105 -236 -271 -106 -203 -232 -422 -298 -521 -29 -44 -52
-82 -50 -83 4 -5 362 126 835 305 220 84 360 142 390 163 89 64 376 367 617
651 l75 88 -58 -1 c-32 -1 -94 -5 -138 -10z m-66 -161 c-132 -149 -309 -336
-401 -423 l-95 -90 -454 -171 c-250 -95 -464 -175 -476 -178 -17 -6 -4 24 71
161 51 92 118 215 149 273 50 92 64 111 119 152 198 147 462 242 863 308 320
52 300 55 224 -32z"/>
<path d="M6061 4946 c-25 -62 -82 -445 -112 -741 -6 -66 -12 -187 -13 -268
l-1 -148 37 -35 c62 -57 131 -42 188 41 54 79 63 116 56 248 -13 258 -93 802
-134 907 l-10 25 -11 -29z"/>
<path d="M7570 4530 c-177 -33 -352 -140 -591 -364 -193 -180 -389 -396 -389
-428 0 -18 23 -5 73 40 81 73 137 108 282 178 162 77 308 128 558 194 276 74
347 118 347 217 0 55 -38 122 -80 144 -42 22 -138 31 -200 19z"/>
<path d="M4317 4436 c-50 -19 -67 -34 -88 -81 -27 -59 -25 -117 7 -154 45 -54
104 -79 316 -136 250 -67 366 -107 538 -184 153 -69 211 -105 299 -183 62 -55
81 -67 81 -50 0 51 -396 460 -578 597 -175 131 -319 195 -457 201 -53 3 -93 0
-118 -10z"/>
<path d="M4883 3510 c-31 -13 -56 -65 -48 -100 9 -42 54 -65 201 -106 231 -62
362 -122 469 -214 72 -62 93 -73 76 -42 -21 40 -341 341 -414 389 -109 73
-215 100 -284 73z"/>
<path d="M7213 3505 c-56 -17 -124 -57 -198 -116 -76 -60 -360 -347 -352 -355
3 -3 43 25 89 62 120 97 257 157 516 225 88 23 128 47 143 86 13 34 -13 90
-46 103 -35 13 -101 12 -152 -5z"/>
</g>
</svg>
